<svg xmlns="http://www.w3.org/2000/svg" xmlns:xlink="http://www.w3.org/1999/xlink" width="4000" zoomAndPan="magnify" viewBox="0 0 3000 2999.999989" height="4000" preserveAspectRatio="xMidYMid meet" version="1.2"><defs><clipPath id="858218609b"><path d="M 570.132812 1383.550781 L 1155.078125 1383.550781 L 1155.078125 1813.851562 L 570.132812 1813.851562 Z M 570.132812 1383.550781 "/></clipPath><clipPath id="fd9f4226f8"><path d="M 862.636719 1412.304688 L 1273.34375 1412.304688 L 1273.34375 1823.011719 L 862.636719 1823.011719 Z M 862.636719 1412.304688 "/></clipPath><clipPath id="f7fb4aa8ad"><path d="M 1067.992188 1412.304688 C 954.578125 1412.304688 862.636719 1504.246094 862.636719 1617.660156 C 862.636719 1731.074219 954.578125 1823.011719 1067.992188 1823.011719 C 1181.402344 1823.011719 1273.34375 1731.074219 1273.34375 1617.660156 C 1273.34375 1504.246094 1181.402344 1412.304688 1067.992188 1412.304688 Z M 1067.992188 1412.304688 "/></clipPath><clipPath id="f14160d2b0"><path d="M 884.648438 1430.320312 L 1259.328125 1430.320312 L 1259.328125 1805 L 884.648438 1805 Z M 884.648438 1430.320312 "/></clipPath><clipPath id="f4a07ef9a9"><path d="M 1071.988281 1430.320312 C 968.523438 1430.320312 884.648438 1514.195312 884.648438 1617.660156 C 884.648438 1721.125 968.523438 1805 1071.988281 1805 C 1175.453125 1805 1259.328125 1721.125 1259.328125 1617.660156 C 1259.328125 1514.195312 1175.453125 1430.320312 1071.988281 1430.320312 Z M 1071.988281 1430.320312 "/></clipPath><clipPath id="2b57d3224b"><path d="M 1310.941406 1368.277344 L 1338.988281 1368.277344 L 1338.988281 1838.179688 L 1310.941406 1838.179688 Z M 1310.941406 1368.277344 "/></clipPath><clipPath id="66519ddf58"><path d="M 936.046875 1540.328125 L 1210.546875 1540.328125 L 1210.546875 1714.734375 L 936.046875 1714.734375 Z M 936.046875 1540.328125 "/></clipPath><clipPath id="2d5a41528b"><path d="M 979 1509.234375 L 1023 1509.234375 L 1023 1533 L 979 1533 Z M 979 1509.234375 "/></clipPath><clipPath id="3cb0a89687"><path d="M 1123 1509.234375 L 1167 1509.234375 L 1167 1533 L 1123 1533 Z M 1123 1509.234375 "/></clipPath></defs><g id="32451ee6e2"><g clip-rule="nonzero" clip-path="url(#858218609b)"><path style=" stroke:none;fill-rule:nonzero;fill:#000000;fill-opacity:1;" d="M 1125.234375 1615.402344 C 1114.484375 1632.070312 1070.761719 1649.144531 1063.976562 1651.71875 C 1063.539062 1651.886719 1063.109375 1652.078125 1062.683594 1652.277344 C 1061.421875 1652.871094 1057.273438 1654.007812 1051.1875 1647.527344 C 1045.839844 1641.847656 1036.636719 1627.4375 1031.953125 1619.90625 C 1030.429688 1617.453125 1031.523438 1614.214844 1034.226562 1613.191406 L 1115.835938 1582.164062 C 1117.566406 1581.507812 1119.519531 1581.984375 1120.75 1583.367188 C 1125.230469 1588.40625 1134.3125 1601.328125 1125.234375 1615.402344 Z M 1103.796875 1737.84375 C 1098.148438 1739.453125 1090.058594 1740.570312 1078.753906 1739.890625 C 1074.742188 1739.648438 1070.910156 1738.136719 1067.820312 1735.566406 L 1042.25 1714.347656 C 1038.429688 1711.175781 1039.105469 1705.117188 1043.539062 1702.882812 C 1053.171875 1698.035156 1070.054688 1691.78125 1090.957031 1693.414062 C 1099.835938 1694.109375 1107.546875 1699.761719 1110.804688 1708.042969 C 1112.195312 1711.589844 1113.496094 1715.871094 1114.382812 1720.894531 C 1115.714844 1728.421875 1111.152344 1735.75 1103.796875 1737.84375 Z M 1027.484375 1741.378906 L 697.726562 1741.378906 C 694.445312 1741.378906 692.726562 1739.324219 694.957031 1738.054688 L 709.820312 1729.574219 C 726.675781 1720.894531 746.222656 1720.121094 753.960938 1720.203125 C 762.617188 1720.292969 771.273438 1720.3125 779.929688 1720.3125 L 945.28125 1720.3125 C 953.9375 1720.3125 962.59375 1720.292969 971.25 1720.203125 C 978.992188 1720.121094 998.539062 1720.894531 1015.390625 1729.574219 L 1030.253906 1738.054688 C 1032.484375 1739.324219 1030.769531 1741.378906 1027.484375 1741.378906 Z M 693.257812 1619.90625 C 688.574219 1627.4375 679.371094 1641.847656 674.023438 1647.527344 C 667.933594 1654.007812 663.792969 1652.871094 662.527344 1652.277344 C 662.101562 1652.078125 661.671875 1651.886719 661.238281 1651.71875 C 654.449219 1649.144531 610.726562 1632.070312 599.976562 1615.402344 C 590.898438 1601.328125 599.980469 1588.40625 604.460938 1583.367188 C 605.6875 1581.984375 607.644531 1581.507812 609.375 1582.164062 L 690.988281 1613.191406 C 693.6875 1614.214844 694.78125 1617.453125 693.257812 1619.90625 Z M 682.960938 1714.347656 L 657.390625 1735.566406 C 654.300781 1738.136719 650.46875 1739.648438 646.457031 1739.890625 C 635.152344 1740.570312 627.070312 1739.453125 621.414062 1737.84375 C 614.058594 1735.75 609.496094 1728.421875 610.828125 1720.894531 C 611.714844 1715.871094 613.019531 1711.589844 614.40625 1708.042969 C 617.667969 1699.761719 625.375 1694.109375 634.253906 1693.414062 C 655.15625 1691.78125 672.039062 1698.035156 681.671875 1702.882812 C 686.109375 1705.117188 686.78125 1711.175781 682.960938 1714.347656 Z M 1012.269531 1667.453125 C 1005.753906 1673.238281 995.15625 1679.472656 978.40625 1682.285156 C 978.40625 1682.285156 935.371094 1689.925781 862.601562 1689.925781 C 789.839844 1689.925781 746.804688 1682.285156 746.804688 1682.285156 C 730.054688 1679.472656 719.457031 1673.238281 712.941406 1667.453125 C 706.566406 1661.789062 705.183594 1652.359375 709.652344 1645.097656 L 713.207031 1639.335938 C 719.859375 1628.527344 730.867188 1621.109375 743.402344 1619.078125 C 770.285156 1614.734375 812.722656 1614.410156 839.046875 1614.710938 C 854.570312 1614.886719 870.101562 1614.90625 885.632812 1614.71875 C 911.910156 1614.402344 954.738281 1614.699219 981.808594 1619.078125 C 994.34375 1621.109375 1005.351562 1628.527344 1012.003906 1639.335938 L 1015.558594 1645.097656 C 1020.027344 1652.359375 1018.648438 1661.789062 1012.269531 1667.453125 Z M 667.011719 1492.578125 C 669.816406 1483.808594 679.007812 1461.167969 707.550781 1421.21875 C 713.4375 1412.976562 722.714844 1407.804688 732.824219 1407.128906 C 758.972656 1405.382812 813.304688 1402.207031 862.601562 1402.207031 C 911.910156 1402.207031 966.242188 1405.382812 992.386719 1407.128906 C 1002.5 1407.804688 1011.765625 1412.976562 1017.660156 1421.21875 C 1046.199219 1461.167969 1055.394531 1483.808594 1058.199219 1492.578125 C 1058.871094 1494.671875 1057.28125 1496.8125 1055.074219 1496.777344 L 862.601562 1493.824219 L 670.136719 1496.777344 C 667.929688 1496.8125 666.339844 1494.671875 667.011719 1492.578125 Z M 1155.070312 1747.347656 L 1152.695312 1608.597656 C 1151.183594 1567.820312 1094.609375 1515.632812 1094.609375 1515.632812 C 1100.371094 1512.515625 1106.757812 1510.707031 1113.308594 1510.417969 C 1122.566406 1510.015625 1135.710938 1506.792969 1132.550781 1491.304688 C 1129.058594 1474.226562 1102.914062 1470.144531 1089.027344 1469.183594 C 1084.667969 1468.886719 1081.230469 1472.835938 1082.113281 1477.113281 L 1086.964844 1500.671875 C 1086.96875 1500.683594 1086.96875 1500.699219 1086.976562 1500.714844 C 1087.324219 1502.480469 1084.90625 1503.375 1083.984375 1501.832031 L 1079.671875 1494.566406 C 1045.46875 1435.953125 1030.558594 1415.175781 1018.019531 1404.429688 C 1012.335938 1399.554688 1005.523438 1396.167969 998.210938 1394.546875 C 944.027344 1382.519531 862.601562 1383.578125 862.601562 1383.578125 C 862.601562 1383.578125 781.183594 1382.519531 727 1394.546875 C 719.691406 1396.167969 712.875 1399.554688 707.195312 1404.429688 C 694.652344 1415.175781 679.742188 1435.953125 645.546875 1494.566406 L 641.226562 1501.832031 C 640.300781 1503.375 637.886719 1502.480469 638.234375 1500.714844 C 638.234375 1500.699219 638.242188 1500.683594 638.246094 1500.671875 L 643.097656 1477.113281 C 643.980469 1472.835938 640.535156 1468.886719 636.183594 1469.183594 C 622.296875 1470.144531 596.152344 1474.226562 592.664062 1491.304688 C 589.5 1506.792969 602.644531 1510.015625 611.910156 1510.417969 C 618.453125 1510.707031 624.839844 1512.515625 630.601562 1515.632812 C 630.601562 1515.632812 574.027344 1567.820312 572.515625 1608.597656 L 570.140625 1747.347656 C 570.039062 1753.101562 572.320312 1758.613281 576.378906 1762.566406 L 576.378906 1778.738281 C 576.378906 1798.050781 592.183594 1813.855469 611.507812 1813.855469 L 675.949219 1813.855469 C 689.046875 1813.855469 699.769531 1803.140625 699.769531 1790.042969 L 699.769531 1779.996094 L 1025.445312 1779.996094 L 1025.445312 1790.042969 C 1025.445312 1803.140625 1036.164062 1813.855469 1049.261719 1813.855469 L 1113.707031 1813.855469 C 1133.027344 1813.855469 1148.832031 1798.050781 1148.832031 1778.738281 L 1148.832031 1762.566406 C 1152.894531 1758.613281 1155.171875 1753.101562 1155.070312 1747.347656 "/></g><g clip-rule="nonzero" clip-path="url(#fd9f4226f8)"><g clip-rule="nonzero" clip-path="url(#f7fb4aa8ad)"><path style=" stroke:none;fill-rule:nonzero;fill:#000000;fill-opacity:1;" d="M 862.636719 1412.304688 L 1273.34375 1412.304688 L 1273.34375 1823.011719 L 862.636719 1823.011719 Z M 862.636719 1412.304688 "/></g></g><g clip-rule="nonzero" clip-path="url(#f14160d2b0)"><g clip-rule="nonzero" clip-path="url(#f4a07ef9a9)"><path style=" stroke:none;fill-rule:nonzero;fill:#f6d44c;fill-opacity:1;" d="M 884.648438 1430.320312 L 1259.328125 1430.320312 L 1259.328125 1805 L 884.648438 1805 Z M 884.648438 1430.320312 "/></g></g><g clip-rule="nonzero" clip-path="url(#2b57d3224b)"><path style=" stroke:none;fill-rule:nonzero;fill:#ffde59;fill-opacity:1;" d="M 1310.941406 1368.277344 L 1338.988281 1368.277344 L 1338.988281 1838.171875 L 1310.941406 1838.171875 Z M 1310.941406 1368.277344 "/></g><g clip-rule="nonzero" clip-path="url(#66519ddf58)"><path style=" stroke:none;fill-rule:nonzero;fill:#000000;fill-opacity:1;" d="M 1171.511719 1638.820312 C 1171.511719 1640.867188 1169.855469 1642.527344 1167.804688 1642.527344 L 1122.730469 1642.527344 C 1120.683594 1642.527344 1119.023438 1640.867188 1119.023438 1638.820312 L 1119.023438 1631.859375 C 1119.023438 1629.8125 1120.683594 1628.152344 1122.730469 1628.152344 L 1167.804688 1628.152344 C 1169.855469 1628.152344 1171.511719 1629.8125 1171.511719 1631.859375 Z M 1100.5 1628.179688 L 1058.65625 1684.25 C 1058.105469 1685.089844 1057.804688 1684.941406 1057.988281 1683.941406 L 1065.875 1641.621094 C 1066.0625 1640.617188 1065.429688 1639.792969 1064.476562 1639.792969 L 1047.15625 1639.792969 C 1046.203125 1639.792969 1045.632812 1638.988281 1045.890625 1637.996094 L 1063.117188 1590.367188 C 1063.375 1589.375 1064.367188 1588.597656 1065.316406 1588.632812 L 1098.546875 1589.824219 C 1099.5 1589.847656 1099.914062 1590.621094 1099.464844 1591.523438 L 1082.75 1625.011719 C 1082.300781 1625.925781 1082.714844 1626.65625 1083.664062 1626.65625 L 1099.769531 1626.65625 C 1100.722656 1626.65625 1101.050781 1627.34375 1100.5 1628.179688 Z M 1027.570312 1638.820312 C 1027.570312 1640.867188 1025.914062 1642.527344 1023.863281 1642.527344 L 1008.519531 1642.527344 L 1008.519531 1657.878906 C 1008.519531 1659.921875 1006.855469 1661.582031 1004.8125 1661.582031 L 997.84375 1661.582031 C 995.796875 1661.582031 994.132812 1659.921875 994.132812 1657.878906 L 994.132812 1642.527344 L 978.789062 1642.527344 C 976.742188 1642.527344 975.082031 1640.867188 975.082031 1638.820312 L 975.082031 1631.859375 C 975.082031 1629.8125 976.742188 1628.152344 978.789062 1628.152344 L 994.132812 1628.152344 L 994.132812 1612.800781 C 994.132812 1610.75 995.796875 1609.09375 997.84375 1609.09375 L 1004.8125 1609.09375 C 1006.855469 1609.09375 1008.519531 1610.75 1008.519531 1612.800781 L 1008.519531 1628.152344 L 1023.863281 1628.152344 C 1025.914062 1628.152344 1027.570312 1629.8125 1027.570312 1631.859375 Z M 1203.335938 1540.46875 L 943.261719 1540.46875 C 939.277344 1540.46875 936.046875 1543.699219 936.046875 1547.679688 L 936.046875 1560.339844 C 936.046875 1565.722656 940.308594 1570.078125 945.636719 1570.296875 L 945.636719 1705.484375 C 945.636719 1710.597656 949.78125 1714.746094 954.894531 1714.746094 L 1191.699219 1714.746094 C 1196.8125 1714.746094 1200.957031 1710.597656 1200.957031 1705.480469 L 1200.957031 1570.296875 C 1206.285156 1570.074219 1210.546875 1565.722656 1210.546875 1560.339844 L 1210.546875 1547.679688 C 1210.546875 1543.699219 1207.320312 1540.46875 1203.335938 1540.46875 "/></g><g clip-rule="nonzero" clip-path="url(#2d5a41528b)"><path style=" stroke:none;fill-rule:nonzero;fill:#000000;fill-opacity:1;" d="M 1022.929688 1513.023438 C 1022.929688 1510.933594 1021.234375 1509.234375 1019.136719 1509.234375 L 983.515625 1509.234375 C 981.421875 1509.234375 979.726562 1510.933594 979.726562 1513.023438 L 979.726562 1532.898438 L 1022.929688 1532.898438 L 1022.929688 1513.023438 "/></g><g clip-rule="nonzero" clip-path="url(#3cb0a89687)"><path style=" stroke:none;fill-rule:nonzero;fill:#000000;fill-opacity:1;" d="M 1166.871094 1513.023438 C 1166.871094 1510.933594 1165.171875 1509.234375 1163.078125 1509.234375 L 1127.457031 1509.234375 C 1125.359375 1509.234375 1123.664062 1510.933594 1123.664062 1513.023438 L 1123.664062 1532.898438 L 1166.871094 1532.898438 L 1166.871094 1513.023438 "/></g><g style="fill:#000000;fill-opacity:1;"><g transform="translate(1391.487134, 1658.454512)"><path style="stroke:none" d="M 78.234375 -235.03125 L 138.125 -235.03125 L 216.359375 0 L 155.1875 0 L 142.953125 -41.21875 L 73.734375 -41.21875 L 61.5 0 L 0 0 Z M 127.828125 -92.734375 L 108.1875 -159.046875 L 88.859375 -92.734375 Z M 127.828125 -92.734375 "/></g></g><g style="fill:#000000;fill-opacity:1;"><g transform="translate(1607.85303, 1658.454512)"><path style="stroke:none" d="M 20.28125 0 L 20.28125 -235.03125 L 76.625 -235.03125 L 147.46875 -113.328125 L 218.296875 -235.03125 L 274.640625 -235.03125 L 274.640625 0 L 218.9375 0 L 218.9375 -139.734375 L 161.953125 -41.53125 L 132.96875 -41.53125 L 75.984375 -139.734375 L 75.984375 0 Z M 20.28125 0 "/></g></g><g style="fill:#000000;fill-opacity:1;"><g transform="translate(1902.780316, 1658.454512)"><path style="stroke:none" d="M 111.078125 -235.03125 C 136.835938 -235.03125 157.5 -227.570312 173.0625 -212.65625 C 188.625 -197.738281 196.40625 -179.117188 196.40625 -156.796875 C 196.40625 -134.472656 188.675781 -115.796875 173.21875 -100.765625 C 157.757812 -85.742188 137.046875 -78.234375 111.078125 -78.234375 L 75.984375 -78.234375 L 75.984375 0 L 20.28125 0 L 20.28125 -235.03125 Z M 109.796875 -132.65625 C 118.804688 -132.65625 125.941406 -134.90625 131.203125 -139.40625 C 136.460938 -143.914062 139.09375 -149.710938 139.09375 -156.796875 C 139.09375 -163.671875 136.460938 -169.359375 131.203125 -173.859375 C 125.941406 -178.367188 118.804688 -180.625 109.796875 -180.625 L 75.984375 -180.625 L 75.984375 -132.65625 Z M 109.796875 -132.65625 "/></g></g><g style="fill:#000000;fill-opacity:1;"><g transform="translate(2105.62333, 1658.454512)"><path style="stroke:none" d="M 20.28125 -235.03125 L 170.328125 -235.03125 L 170.328125 -184.171875 L 75.65625 -184.171875 L 75.65625 -145.203125 L 163.875 -145.203125 L 163.875 -94.984375 L 75.65625 -94.984375 L 75.65625 -53.453125 L 173.546875 -53.453125 L 173.546875 0 L 20.28125 0 Z M 20.28125 -235.03125 "/></g></g><g style="fill:#000000;fill-opacity:1;"><g transform="translate(2291.079762, 1658.454512)"><path style="stroke:none" d="M 111.078125 -235.03125 C 136.835938 -235.03125 157.5 -227.570312 173.0625 -212.65625 C 188.625 -197.738281 196.40625 -179.117188 196.40625 -156.796875 C 196.40625 -141.984375 192.644531 -128.566406 185.125 -116.546875 C 177.613281 -104.523438 167.3125 -95.507812 154.21875 -89.5 L 201.234375 0 L 137.796875 0 L 99.171875 -78.234375 L 75.984375 -78.234375 L 75.984375 0 L 20.28125 0 L 20.28125 -235.03125 Z M 109.796875 -132.65625 C 118.804688 -132.65625 125.941406 -134.90625 131.203125 -139.40625 C 136.460938 -143.914062 139.09375 -149.710938 139.09375 -156.796875 C 139.09375 -163.671875 136.460938 -169.359375 131.203125 -173.859375 C 125.941406 -178.367188 118.804688 -180.625 109.796875 -180.625 L 75.984375 -180.625 L 75.984375 -132.65625 Z M 109.796875 -132.65625 "/></g></g><g style="fill:#f6d44c;fill-opacity:1;"><g transform="translate(1385.368548, 1807.155378)"><path style="stroke:none" d="M 7.8125 -90.59375 L 68.125 -90.59375 L 68.125 -69.984375 L 29.15625 -69.984375 L 29.15625 -54.84375 L 65.640625 -54.84375 L 65.640625 -34.25 L 29.15625 -34.25 L 29.15625 0 L 7.8125 0 Z M 7.8125 -90.59375 "/></g></g><g style="fill:#f6d44c;fill-opacity:1;"><g transform="translate(1460.063891, 1807.155378)"><path style="stroke:none" d="M 13.78125 -58.9375 C 20.644531 -65.8125 28.914062 -69.25 38.59375 -69.25 C 48.269531 -69.25 56.5625 -65.789062 63.46875 -58.875 C 70.375 -51.96875 73.828125 -43.71875 73.828125 -34.125 C 73.828125 -24.363281 70.375 -16.03125 63.46875 -9.125 C 56.5625 -2.21875 48.269531 1.234375 38.59375 1.234375 C 28.832031 1.234375 20.535156 -2.21875 13.703125 -9.125 C 6.878906 -16.03125 3.46875 -24.363281 3.46875 -34.125 C 3.46875 -43.800781 6.90625 -52.070312 13.78125 -58.9375 Z M 23.828125 -34.125 C 23.828125 -29.988281 25.273438 -26.472656 28.171875 -23.578125 C 30.984375 -20.679688 34.457031 -19.234375 38.59375 -19.234375 C 42.726562 -19.234375 46.222656 -20.679688 49.078125 -23.578125 C 51.929688 -26.472656 53.359375 -29.988281 53.359375 -34.125 C 53.359375 -38.175781 51.929688 -41.628906 49.078125 -44.484375 C 46.222656 -47.335938 42.726562 -48.765625 38.59375 -48.765625 C 34.457031 -48.765625 30.960938 -47.335938 28.109375 -44.484375 C 25.253906 -41.628906 23.828125 -38.175781 23.828125 -34.125 Z M 23.828125 -34.125 "/></g></g><g style="fill:#f6d44c;fill-opacity:1;"><g transform="translate(1539.970519, 1807.155378)"><path style="stroke:none" d="M 6.578125 0 L 6.578125 -68.25 L 24.8125 -68.25 L 26.3125 -59.1875 C 30.195312 -65.5625 36.691406 -68.75 45.796875 -68.75 C 48.359375 -68.75 50.585938 -68.582031 52.484375 -68.25 L 48.390625 -49.015625 C 47.898438 -49.097656 47.238281 -49.140625 46.40625 -49.140625 C 33.257812 -49.140625 26.6875 -41.859375 26.6875 -27.296875 L 26.6875 0 Z M 6.578125 0 "/></g></g><g style="fill:#f6d44c;fill-opacity:1;"><g transform="translate(1597.543099, 1807.155378)"><path style="stroke:none" d=""/></g></g><g style="fill:#f6d44c;fill-opacity:1;"><g transform="translate(1633.153838, 1807.155378)"><path style="stroke:none" d="M 18.484375 -78.546875 C 27.671875 -87.734375 38.800781 -92.328125 51.875 -92.328125 C 59.238281 -92.328125 66.144531 -90.734375 72.59375 -87.546875 C 79.050781 -84.359375 84.46875 -79.992188 88.84375 -74.453125 L 70.984375 -61.296875 C 65.929688 -67.335938 59.5625 -70.359375 51.875 -70.359375 C 45.007812 -70.359375 39.09375 -67.894531 34.125 -62.96875 C 29.164062 -58.050781 26.6875 -52.160156 26.6875 -45.296875 C 26.6875 -38.347656 29.144531 -32.410156 34.0625 -27.484375 C 38.988281 -22.566406 44.925781 -20.109375 51.875 -20.109375 C 59.644531 -20.109375 65.929688 -23.039062 70.734375 -28.90625 L 89.84375 -17.375 C 85.457031 -11.332031 79.953125 -6.59375 73.328125 -3.15625 C 66.710938 0.269531 59.5625 1.984375 51.875 1.984375 C 38.800781 1.984375 27.671875 -2.625 18.484375 -11.84375 C 9.304688 -21.070312 4.71875 -32.222656 4.71875 -45.296875 C 4.71875 -58.285156 9.304688 -69.367188 18.484375 -78.546875 Z M 18.484375 -78.546875 "/></g></g><g style="fill:#f6d44c;fill-opacity:1;"><g transform="translate(1729.314692, 1807.155378)"><path style="stroke:none" d="M 12.78125 -59.1875 C 18.988281 -66.0625 26.476562 -69.5 35.25 -69.5 C 39.382812 -69.5 43.226562 -68.484375 46.78125 -66.453125 C 50.34375 -64.421875 53.15625 -61.753906 55.21875 -58.453125 L 56.46875 -68.25 L 74.703125 -68.25 L 74.703125 0 L 56.46875 0 L 55.21875 -9.921875 C 53.15625 -6.703125 50.34375 -4.078125 46.78125 -2.046875 C 43.226562 -0.015625 39.382812 1 35.25 1 C 26.476562 1 18.988281 -2.453125 12.78125 -9.359375 C 6.570312 -16.273438 3.46875 -24.570312 3.46875 -34.25 C 3.46875 -43.925781 6.570312 -52.238281 12.78125 -59.1875 Z M 28.296875 -23.328125 C 31.191406 -20.347656 34.789062 -18.859375 39.09375 -18.859375 C 43.394531 -18.859375 47.050781 -20.347656 50.0625 -23.328125 C 53.082031 -26.304688 54.59375 -29.945312 54.59375 -34.25 C 54.59375 -38.550781 53.082031 -42.210938 50.0625 -45.234375 C 47.050781 -48.253906 43.394531 -49.765625 39.09375 -49.765625 C 34.789062 -49.765625 31.171875 -48.253906 28.234375 -45.234375 C 25.296875 -42.210938 23.828125 -38.550781 23.828125 -34.25 C 23.828125 -29.945312 25.316406 -26.304688 28.296875 -23.328125 Z M 28.296875 -23.328125 "/></g></g><g style="fill:#f6d44c;fill-opacity:1;"><g transform="translate(1813.315901, 1807.155378)"><path style="stroke:none" d="M 6.578125 0 L 6.578125 -68.25 L 24.8125 -68.25 L 26.3125 -59.1875 C 30.195312 -65.5625 36.691406 -68.75 45.796875 -68.75 C 48.359375 -68.75 50.585938 -68.582031 52.484375 -68.25 L 48.390625 -49.015625 C 47.898438 -49.097656 47.238281 -49.140625 46.40625 -49.140625 C 33.257812 -49.140625 26.6875 -41.859375 26.6875 -27.296875 L 26.6875 0 Z M 6.578125 0 "/></g></g><g style="fill:#f6d44c;fill-opacity:1;"><g transform="translate(1870.888469, 1807.155378)"><path style="stroke:none" d=""/></g></g><g style="fill:#f6d44c;fill-opacity:1;"><g transform="translate(1906.499231, 1807.155378)"><path style="stroke:none" d="M 7.8125 -90.59375 L 41.8125 -90.59375 C 50.414062 -90.59375 57.550781 -88.421875 63.21875 -84.078125 C 68.882812 -79.734375 71.71875 -73.878906 71.71875 -66.515625 C 71.71875 -59.484375 68.90625 -53.609375 63.28125 -48.890625 C 67.34375 -46.828125 70.570312 -43.953125 72.96875 -40.265625 C 75.363281 -36.585938 76.5625 -32.265625 76.5625 -27.296875 C 76.5625 -19.273438 73.644531 -12.71875 67.8125 -7.625 C 61.976562 -2.539062 54.472656 0 45.296875 0 L 7.8125 0 Z M 29.28125 -20.59375 L 44.546875 -20.59375 C 47.691406 -20.59375 50.113281 -21.359375 51.8125 -22.890625 C 53.507812 -24.421875 54.359375 -26.46875 54.359375 -29.03125 C 54.359375 -31.601562 53.46875 -33.632812 51.6875 -35.125 C 49.90625 -36.613281 47.609375 -37.359375 44.796875 -37.359375 L 29.28125 -37.359375 Z M 29.28125 -55.84375 L 42.8125 -55.96875 C 45.207031 -56.132812 47.128906 -56.878906 48.578125 -58.203125 C 50.023438 -59.523438 50.75 -61.21875 50.75 -63.28125 C 50.75 -65.601562 49.898438 -67.488281 48.203125 -68.9375 C 46.515625 -70.382812 44.222656 -71.109375 41.328125 -71.109375 L 29.28125 -71.109375 Z M 29.28125 -55.84375 "/></g></g><g style="fill:#f6d44c;fill-opacity:1;"><g transform="translate(1989.13555, 1807.155378)"><path style="stroke:none" d="M 12.78125 -59.1875 C 18.988281 -66.0625 26.476562 -69.5 35.25 -69.5 C 39.382812 -69.5 43.226562 -68.484375 46.78125 -66.453125 C 50.34375 -64.421875 53.15625 -61.753906 55.21875 -58.453125 L 56.46875 -68.25 L 74.703125 -68.25 L 74.703125 0 L 56.46875 0 L 55.21875 -9.921875 C 53.15625 -6.703125 50.34375 -4.078125 46.78125 -2.046875 C 43.226562 -0.015625 39.382812 1 35.25 1 C 26.476562 1 18.988281 -2.453125 12.78125 -9.359375 C 6.570312 -16.273438 3.46875 -24.570312 3.46875 -34.25 C 3.46875 -43.925781 6.570312 -52.238281 12.78125 -59.1875 Z M 28.296875 -23.328125 C 31.191406 -20.347656 34.789062 -18.859375 39.09375 -18.859375 C 43.394531 -18.859375 47.050781 -20.347656 50.0625 -23.328125 C 53.082031 -26.304688 54.59375 -29.945312 54.59375 -34.25 C 54.59375 -38.550781 53.082031 -42.210938 50.0625 -45.234375 C 47.050781 -48.253906 43.394531 -49.765625 39.09375 -49.765625 C 34.789062 -49.765625 31.171875 -48.253906 28.234375 -45.234375 C 25.296875 -42.210938 23.828125 -38.550781 23.828125 -34.25 C 23.828125 -29.945312 25.316406 -26.304688 28.296875 -23.328125 Z M 28.296875 -23.328125 "/></g></g><g style="fill:#f6d44c;fill-opacity:1;"><g transform="translate(2073.136782, 1807.155378)"><path style="stroke:none" d="M 11.546875 -68.25 L 14.515625 -90.59375 L 30.90625 -90.59375 L 30.90625 -68.25 L 46.15625 -68.25 L 46.15625 -50.5 L 30.90625 -50.5 L 30.90625 -30.28125 C 30.90625 -22.09375 34.460938 -18 41.578125 -18 C 43.140625 -18 44.664062 -18.242188 46.15625 -18.734375 L 51.125 -0.875 C 47.488281 0.613281 43.269531 1.359375 38.46875 1.359375 C 30.363281 1.359375 23.722656 -1.078125 18.546875 -5.953125 C 13.378906 -10.835938 10.796875 -18.90625 10.796875 -30.15625 L 10.796875 -50.5 L 1.859375 -50.5 L 1.859375 -68.25 Z M 11.546875 -68.25 "/></g></g><g style="fill:#f6d44c;fill-opacity:1;"><g transform="translate(2130.088943, 1807.155378)"><path style="stroke:none" d="M 11.546875 -68.25 L 14.515625 -90.59375 L 30.90625 -90.59375 L 30.90625 -68.25 L 46.15625 -68.25 L 46.15625 -50.5 L 30.90625 -50.5 L 30.90625 -30.28125 C 30.90625 -22.09375 34.460938 -18 41.578125 -18 C 43.140625 -18 44.664062 -18.242188 46.15625 -18.734375 L 51.125 -0.875 C 47.488281 0.613281 43.269531 1.359375 38.46875 1.359375 C 30.363281 1.359375 23.722656 -1.078125 18.546875 -5.953125 C 13.378906 -10.835938 10.796875 -18.90625 10.796875 -30.15625 L 10.796875 -50.5 L 1.859375 -50.5 L 1.859375 -68.25 Z M 11.546875 -68.25 "/></g></g><g style="fill:#f6d44c;fill-opacity:1;"><g transform="translate(2187.04115, 1807.155378)"><path style="stroke:none" d="M 13.78125 -58.9375 C 20.5625 -65.8125 28.789062 -69.25 38.46875 -69.25 C 48.226562 -69.25 56.5 -65.8125 63.28125 -58.9375 C 70.070312 -52.070312 73.46875 -43.800781 73.46875 -34.125 C 73.46875 -32.0625 73.300781 -29.539062 72.96875 -26.5625 L 25.0625 -26.5625 C 26.0625 -23.832031 27.90625 -21.617188 30.59375 -19.921875 C 33.28125 -18.222656 36.484375 -17.375 40.203125 -17.375 C 46.160156 -17.375 50.796875 -19.03125 54.109375 -22.34375 L 70.109375 -12.15625 C 66.878906 -8.101562 62.515625 -4.859375 57.015625 -2.421875 C 51.515625 0.015625 45.910156 1.234375 40.203125 1.234375 C 29.535156 1.234375 20.742188 -2.175781 13.828125 -9 C 6.921875 -15.820312 3.46875 -24.195312 3.46875 -34.125 C 3.46875 -43.800781 6.90625 -52.070312 13.78125 -58.9375 Z M 25.1875 -42.3125 L 52.609375 -42.3125 C 51.953125 -44.632812 50.359375 -46.597656 47.828125 -48.203125 C 45.304688 -49.816406 42.226562 -50.625 38.59375 -50.625 C 35.03125 -50.625 32.070312 -49.816406 29.71875 -48.203125 C 27.363281 -46.597656 25.851562 -44.632812 25.1875 -42.3125 Z M 25.1875 -42.3125 "/></g></g><g style="fill:#f6d44c;fill-opacity:1;"><g transform="translate(2266.699624, 1807.155378)"><path style="stroke:none" d="M 6.578125 0 L 6.578125 -68.25 L 24.8125 -68.25 L 26.3125 -59.1875 C 30.195312 -65.5625 36.691406 -68.75 45.796875 -68.75 C 48.359375 -68.75 50.585938 -68.582031 52.484375 -68.25 L 48.390625 -49.015625 C 47.898438 -49.097656 47.238281 -49.140625 46.40625 -49.140625 C 33.257812 -49.140625 26.6875 -41.859375 26.6875 -27.296875 L 26.6875 0 Z M 6.578125 0 "/></g></g><g style="fill:#f6d44c;fill-opacity:1;"><g transform="translate(2324.272192, 1807.155378)"><path style="stroke:none" d="M 6.578125 0 L 6.578125 -68.25 L 26.6875 -68.25 L 26.6875 0 Z M 5.453125 -84.140625 C 5.453125 -87.203125 6.546875 -89.847656 8.734375 -92.078125 C 10.929688 -94.304688 13.5625 -95.421875 16.625 -95.421875 C 19.6875 -95.421875 22.3125 -94.304688 24.5 -92.078125 C 26.695312 -89.847656 27.796875 -87.203125 27.796875 -84.140625 C 27.796875 -81.078125 26.722656 -78.46875 24.578125 -76.3125 C 22.335938 -74.082031 19.6875 -72.96875 16.625 -72.96875 C 13.5625 -72.96875 10.929688 -74.0625 8.734375 -76.25 C 6.546875 -78.445312 5.453125 -81.078125 5.453125 -84.140625 Z M 5.453125 -84.140625 "/></g></g><g style="fill:#f6d44c;fill-opacity:1;"><g transform="translate(2360.255162, 1807.155378)"><path style="stroke:none" d="M 13.78125 -58.9375 C 20.5625 -65.8125 28.789062 -69.25 38.46875 -69.25 C 48.226562 -69.25 56.5 -65.8125 63.28125 -58.9375 C 70.070312 -52.070312 73.46875 -43.800781 73.46875 -34.125 C 73.46875 -32.0625 73.300781 -29.539062 72.96875 -26.5625 L 25.0625 -26.5625 C 26.0625 -23.832031 27.90625 -21.617188 30.59375 -19.921875 C 33.28125 -18.222656 36.484375 -17.375 40.203125 -17.375 C 46.160156 -17.375 50.796875 -19.03125 54.109375 -22.34375 L 70.109375 -12.15625 C 66.878906 -8.101562 62.515625 -4.859375 57.015625 -2.421875 C 51.515625 0.015625 45.910156 1.234375 40.203125 1.234375 C 29.535156 1.234375 20.742188 -2.175781 13.828125 -9 C 6.921875 -15.820312 3.46875 -24.195312 3.46875 -34.125 C 3.46875 -43.800781 6.90625 -52.070312 13.78125 -58.9375 Z M 25.1875 -42.3125 L 52.609375 -42.3125 C 51.953125 -44.632812 50.359375 -46.597656 47.828125 -48.203125 C 45.304688 -49.816406 42.226562 -50.625 38.59375 -50.625 C 35.03125 -50.625 32.070312 -49.816406 29.71875 -48.203125 C 27.363281 -46.597656 25.851562 -44.632812 25.1875 -42.3125 Z M 25.1875 -42.3125 "/></g></g><g style="fill:#f6d44c;fill-opacity:1;"><g transform="translate(2439.913636, 1807.155378)"><path style="stroke:none" d="M 17.625 -22.953125 C 19.6875 -21.054688 22.414062 -19.566406 25.8125 -18.484375 C 29.207031 -17.410156 32.429688 -16.875 35.484375 -16.875 C 40.703125 -16.875 43.3125 -17.992188 43.3125 -20.234375 C 43.3125 -21.390625 42.023438 -22.335938 39.453125 -23.078125 C 36.890625 -23.828125 33.804688 -24.632812 30.203125 -25.5 C 26.609375 -26.363281 22.992188 -27.519531 19.359375 -28.96875 C 15.722656 -30.414062 12.617188 -32.835938 10.046875 -36.234375 C 7.484375 -39.628906 6.203125 -43.804688 6.203125 -48.765625 C 6.203125 -55.054688 8.660156 -60.125 13.578125 -63.96875 C 18.503906 -67.8125 25.023438 -69.734375 33.140625 -69.734375 C 45.878906 -69.734375 55.472656 -65.972656 61.921875 -58.453125 L 50.015625 -46.40625 C 48.273438 -48.226562 45.8125 -49.613281 42.625 -50.5625 C 39.4375 -51.519531 36.4375 -52 33.625 -52 C 28.75 -52 26.3125 -50.921875 26.3125 -48.765625 C 26.3125 -47.859375 27.238281 -47.070312 29.09375 -46.40625 C 30.957031 -45.75 33.253906 -45.171875 35.984375 -44.671875 C 38.710938 -44.171875 41.710938 -43.382812 44.984375 -42.3125 C 48.253906 -41.238281 51.253906 -39.9375 53.984375 -38.40625 C 56.710938 -36.875 59.003906 -34.597656 60.859375 -31.578125 C 62.722656 -28.554688 63.65625 -25.019531 63.65625 -20.96875 C 63.65625 -13.4375 61.03125 -7.75 55.78125 -3.90625 C 50.53125 -0.0625 43.765625 1.859375 35.484375 1.859375 C 29.773438 1.859375 24.066406 0.867188 18.359375 -1.109375 C 12.648438 -3.097656 7.894531 -5.992188 4.09375 -9.796875 Z M 17.625 -22.953125 "/></g></g></g></svg>