<svg xmlns="http://www.w3.org/2000/svg" width="4000" viewBox="0 0 3000 3000" height="4000" version="1.2">
    <defs>
        <clipPath id="prefix__a">
            <path d="M570.133 1383.55h584.945v430.302H570.133zm0 0" />
        </clipPath>
        <clipPath id="prefix__b">
            <path d="M862.637 1412.305h410.707v410.707H862.637zm0 0" />
        </clipPath>
        <clipPath id="prefix__c">
            <path
                d="M1067.992 1412.305c-113.414 0-205.355 91.941-205.355 205.355 0 113.414 91.941 205.352 205.355 205.352 113.41 0 205.352-91.938 205.352-205.352s-91.942-205.355-205.352-205.355zm0 0" />
        </clipPath>
        <clipPath id="prefix__d">
            <path d="M884.648 1430.32h374.68V1805h-374.68zm0 0" />
        </clipPath>
        <clipPath id="prefix__e">
            <path
                d="M1071.988 1430.32c-103.465 0-187.34 83.875-187.34 187.34S968.523 1805 1071.988 1805s187.34-83.875 187.34-187.34-83.875-187.34-187.34-187.34zm0 0" />
        </clipPath>
        <clipPath id="prefix__f">
            <path d="M1310.941 1368.277h28.047v469.903h-28.047zm0 0" />
        </clipPath>
        <clipPath id="prefix__g">
            <path d="M936.047 1540.328h274.5v174.406h-274.5zm0 0" />
        </clipPath>
        <clipPath id="prefix__h">
            <path d="M979 1509.234h44V1533h-44zm0 0" />
        </clipPath>
        <clipPath id="prefix__i">
            <path d="M1123 1509.234h44V1533h-44zm0 0" />
        </clipPath>
    </defs>
    <g clip-path="url(#prefix__a)">
        <path
            d="M1125.234 1615.402c-10.75 16.668-54.472 33.743-61.257 36.317-.438.168-.868.36-1.293.558-1.262.594-5.41 1.73-11.496-4.75-5.348-5.68-14.551-20.09-19.235-27.62-1.523-2.454-.43-5.692 2.274-6.716l81.609-31.027a4.457 4.457 0 014.914 1.203c4.48 5.04 13.563 17.961 4.484 32.035zm-21.437 122.442c-5.649 1.61-13.738 2.726-25.043 2.047a18.872 18.872 0 01-10.934-4.325l-25.57-21.218c-3.82-3.172-3.145-9.23 1.29-11.465 9.632-4.848 26.515-11.102 47.417-9.469 8.879.695 16.59 6.348 19.848 14.629 1.39 3.547 2.691 7.828 3.578 12.852 1.332 7.527-3.23 14.855-10.586 16.949zm-76.313 3.535H697.727c-3.282 0-5-2.055-2.77-3.324l14.863-8.48c16.856-8.68 36.403-9.454 44.14-9.372 8.657.09 17.313.11 25.97.11H945.28c8.657 0 17.313-.02 25.969-.11 7.742-.082 27.29.692 44.14 9.371l14.864 8.48c2.23 1.27.516 3.325-2.77 3.325zm-334.226-121.473c-4.684 7.532-13.887 21.942-19.235 27.621-6.09 6.48-10.23 5.344-11.496 4.75-.425-.199-.855-.39-1.289-.558-6.789-2.574-50.511-19.649-61.261-36.317-9.079-14.074.003-26.996 4.484-32.035a4.456 4.456 0 014.914-1.203l81.613 31.027c2.7 1.024 3.793 4.262 2.27 6.715zm-10.297 94.442l-25.57 21.218a18.872 18.872 0 01-10.934 4.325c-11.305.68-19.387-.438-25.043-2.047-7.355-2.094-11.918-9.422-10.586-16.95.887-5.023 2.192-9.304 3.578-12.851 3.262-8.281 10.969-13.934 19.848-14.629 20.902-1.633 37.785 4.621 47.418 9.469 4.437 2.234 5.11 8.293 1.289 11.465zm329.309-46.895c-6.516 5.785-17.114 12.02-33.864 14.832 0 0-43.035 7.64-115.804 7.64-72.762 0-115.797-7.64-115.797-7.64-16.75-2.812-27.348-9.047-33.864-14.832-6.375-5.664-7.757-15.094-3.289-22.355l3.555-5.762c6.652-10.809 17.66-18.227 30.195-20.258 26.883-4.344 69.32-4.668 95.645-4.367 15.523.176 31.055.195 46.586.008 26.277-.317 69.105-.02 96.176 4.36 12.535 2.03 23.543 9.448 30.195 20.257l3.555 5.762c4.468 7.261 3.09 16.691-3.29 22.355zm-345.258-174.875c2.804-8.77 11.996-31.41 40.539-71.36a33.834 33.834 0 0125.273-14.09c26.149-1.745 80.48-4.921 129.778-4.921 49.308 0 103.64 3.176 129.785 4.922a33.84 33.84 0 0125.273 14.09c28.54 39.949 37.735 62.59 40.54 71.36.671 2.093-.919 4.234-3.126 4.198l-192.472-2.953-192.465 2.953c-2.207.035-3.797-2.105-3.125-4.199zm488.058 254.77l-2.375-138.75c-1.511-40.778-58.086-92.965-58.086-92.965 5.762-3.117 12.149-4.926 18.7-5.215 9.257-.402 22.402-3.625 19.242-19.113-3.492-17.078-29.637-21.16-43.524-22.121-4.359-.297-7.797 3.652-6.914 7.93l4.852 23.558c.004.012.004.027.012.043.347 1.765-2.07 2.66-2.993 1.117l-4.312-7.266c-34.203-58.613-49.113-79.39-61.652-90.136a45.573 45.573 0 00-19.81-9.883c-54.183-12.027-135.608-10.969-135.608-10.969s-81.418-1.058-135.602 10.969a45.559 45.559 0 00-19.805 9.883c-12.543 10.746-27.453 31.523-61.648 90.136l-4.32 7.266c-.926 1.543-3.34.648-2.993-1.117 0-.016.008-.031.012-.043l4.852-23.559c.882-4.277-2.563-8.226-6.914-7.93-13.887.962-40.032 5.044-43.52 22.122-3.164 15.488 9.98 18.71 19.246 19.113 6.543.289 12.93 2.098 18.692 5.215 0 0-56.575 52.187-58.086 92.965l-2.375 138.75c-.102 5.754 2.18 11.265 6.238 15.218v16.172c0 19.313 15.805 35.117 35.129 35.117h64.441c13.098 0 23.82-10.714 23.82-23.812v-10.047h325.676v10.047c0 13.098 10.72 23.812 23.817 23.812h64.445c19.32 0 35.125-15.804 35.125-35.117v-16.172c4.063-3.953 6.34-9.464 6.238-15.218" />
    </g>
    <g clip-path="url(#prefix__b)">
        <g clip-path="url(#prefix__c)">
            <path d="M862.637 1412.305h410.707v410.707H862.637zm0 0" />
        </g>
    </g>
    <g clip-path="url(#prefix__d)">
        <g clip-path="url(#prefix__e)">
            <path d="M884.648 1430.32h374.68V1805h-374.68zm0 0" fill="#f6d44c" />
        </g>
    </g>
    <g clip-path="url(#prefix__f)">
        <path d="M1310.941 1368.277h28.047v469.895h-28.047zm0 0" fill="#ffde59" />
    </g>
    <g clip-path="url(#prefix__g)">
        <path
            d="M1171.512 1638.82a3.705 3.705 0 01-3.707 3.707h-45.075a3.708 3.708 0 01-3.707-3.707v-6.96a3.708 3.708 0 013.707-3.708h45.075c2.05 0 3.707 1.66 3.707 3.707zm-71.012-10.64l-41.844 56.07c-.55.84-.851.691-.668-.309l7.887-42.32c.188-1.004-.445-1.828-1.398-1.828h-17.32c-.954 0-1.524-.805-1.266-1.797l17.226-47.629c.258-.992 1.25-1.77 2.2-1.734l33.23 1.191c.953.024 1.367.797.918 1.7l-16.715 33.488c-.45.914-.035 1.644.914 1.644h16.106c.953 0 1.28.688.73 1.524zm-72.93 10.64a3.705 3.705 0 01-3.707 3.707h-15.343v15.352a3.71 3.71 0 01-3.707 3.703h-6.97a3.71 3.71 0 01-3.71-3.703v-15.352h-15.344a3.708 3.708 0 01-3.707-3.707v-6.96a3.708 3.708 0 013.707-3.708h15.344v-15.351a3.708 3.708 0 013.71-3.707h6.97a3.708 3.708 0 013.707 3.707v15.351h15.343c2.051 0 3.707 1.66 3.707 3.707zm175.766-98.351H943.262a7.214 7.214 0 00-7.215 7.21v12.66c0 5.384 4.262 9.74 9.59 9.958v135.187c0 5.114 4.144 9.262 9.258 9.262h236.804c5.113 0 9.258-4.148 9.258-9.266v-135.183c5.328-.223 9.59-4.574 9.59-9.957v-12.66c0-3.98-3.227-7.211-7.211-7.211" />
    </g>
    <g clip-path="url(#prefix__h)">
        <path
            d="M1022.93 1513.023c0-2.09-1.696-3.789-3.793-3.789h-35.621a3.79 3.79 0 00-3.79 3.79v19.874h43.204v-19.875" />
    </g>
    <g clip-path="url(#prefix__i)">
        <path
            d="M1166.871 1513.023c0-2.09-1.7-3.789-3.793-3.789h-35.621a3.791 3.791 0 00-3.793 3.79v19.874h43.207v-19.875" />
    </g>
    <path
        d="M1469.722 1423.423h59.89l78.235 235.032h-61.172l-12.235-41.22h-69.218l-12.235 41.22h-61.5zm49.593 142.297l-19.64-66.312-19.328 66.312zm0 0M1628.134 1658.455v-235.032h56.344l70.844 121.703 70.828-121.703h56.344v235.032h-55.703V1518.72l-56.985 98.203h-28.984l-56.985-98.203v139.735zm0 0M2013.858 1423.423c25.758 0 46.422 7.461 61.985 22.375 15.562 14.918 23.344 33.54 23.344 55.86 0 22.324-7.73 41-23.188 56.03-15.46 15.024-36.172 22.532-62.14 22.532h-35.094v78.235h-55.703v-235.032zm-1.28 102.375c9.007 0 16.144-2.25 21.405-6.75 5.258-4.508 7.891-10.304 7.891-17.39 0-6.875-2.633-12.563-7.89-17.063-5.262-4.508-12.399-6.765-21.407-6.765h-33.812v47.968zm0 0M2125.905 1423.423h150.046v50.86h-94.671v38.968h88.218v50.22h-88.218V1605h97.89v53.454h-153.265zm0 0M2402.158 1423.423c25.758 0 46.422 7.461 61.984 22.375 15.563 14.918 23.344 33.54 23.344 55.86 0 14.812-3.762 28.23-11.281 40.25-7.512 12.023-17.813 21.039-30.906 27.047l47.015 89.5h-63.437l-38.625-78.235h-23.188v78.235h-55.703v-235.032zm-1.281 102.375c9.007 0 16.144-2.25 21.406-6.75 5.258-4.508 7.89-10.304 7.89-17.39 0-6.875-2.632-12.563-7.89-17.063-5.262-4.508-12.399-6.765-21.406-6.765h-33.813v47.968zm0 0" />
    <path
        d="M1393.181 1716.562h60.313v20.609h-38.97v15.14h36.485v20.594h-36.484v34.25h-21.344zm0 0M1473.845 1748.218c6.863-6.875 15.133-10.313 24.813-10.313 9.675 0 17.968 3.461 24.875 10.375 6.906 6.907 10.359 15.157 10.359 24.75 0 9.762-3.453 18.094-10.36 25-6.906 6.907-15.199 10.36-24.874 10.36-9.762 0-18.059-3.453-24.891-10.36-6.824-6.906-10.234-15.238-10.234-25 0-9.675 3.437-17.945 10.312-24.812zm10.047 24.812c0 4.137 1.445 7.653 4.344 10.547 2.812 2.899 6.285 4.344 10.422 4.344 4.132 0 7.629-1.445 10.484-4.344 2.852-2.894 4.281-6.41 4.281-10.547 0-4.05-1.43-7.504-4.281-10.359-2.855-2.852-6.352-4.281-10.484-4.281-4.137 0-7.633 1.43-10.485 4.281-2.855 2.855-4.281 6.309-4.281 10.36zm0 0M1546.549 1807.155v-68.25h18.234l1.5 9.063c3.883-6.375 10.379-9.563 19.484-9.563 2.563 0 4.79.168 6.688.5l-4.094 19.235c-.492-.082-1.152-.125-1.984-.125-13.149 0-19.719 7.281-19.719 21.844v27.296zm0 0M1651.638 1728.609c9.188-9.188 20.317-13.782 33.39-13.782 7.364 0 14.27 1.594 20.72 4.782 6.457 3.187 11.875 7.554 16.25 13.093l-17.86 13.157c-5.054-6.04-11.422-9.063-19.11-9.063-6.866 0-12.78 2.465-17.75 7.39-4.96 4.919-7.437 10.81-7.437 17.673 0 6.949 2.457 12.886 7.375 17.812 4.926 4.918 10.864 7.375 17.813 7.375 7.77 0 14.055-2.93 18.86-8.797l19.109 11.531c-4.387 6.043-9.891 10.782-16.516 14.22-6.617 3.425-13.766 5.14-21.453 5.14-13.074 0-24.203-4.61-33.39-13.828-9.18-9.227-13.766-20.38-13.766-33.453 0-12.989 4.586-24.07 13.765-33.25zm0 0M1742.096 1747.968c6.207-6.875 13.695-10.313 22.469-10.313 4.133 0 7.976 1.016 11.53 3.047 3.563 2.032 6.376 4.7 8.438 8l1.25-9.797h18.235v68.25h-18.235l-1.25-9.921c-2.062 3.218-4.875 5.843-8.437 7.875-3.555 2.03-7.398 3.046-11.531 3.046-8.774 0-16.262-3.453-22.47-10.359-6.21-6.914-9.312-15.21-9.312-24.89 0-9.676 3.102-17.989 9.313-24.938zm15.516 35.86c2.894 2.98 6.492 4.468 10.796 4.468 4.301 0 7.957-1.488 10.97-4.469 3.019-2.976 4.53-6.617 4.53-10.922 0-4.3-1.511-7.96-4.53-10.984-3.013-3.02-6.669-4.531-10.97-4.531-4.304 0-7.921 1.511-10.859 4.531-2.937 3.023-4.406 6.684-4.406 10.984 0 4.305 1.488 7.946 4.469 10.922zm0 0M1819.894 1807.155v-68.25h18.234l1.5 9.063c3.883-6.375 10.38-9.563 19.485-9.563 2.562 0 4.789.168 6.687.5l-4.093 19.235c-.493-.082-1.153-.125-1.985-.125-13.148 0-19.719 7.281-19.719 21.844v27.296zm0 0M1914.312 1716.562h34c8.601 0 15.738 2.172 21.406 6.515 5.664 4.344 8.5 10.2 8.5 17.563 0 7.031-2.813 12.906-8.438 17.625 4.063 2.062 7.29 4.937 9.688 8.625 2.395 3.68 3.594 8 3.594 12.969 0 8.023-2.918 14.578-8.75 19.671-5.836 5.086-13.34 7.625-22.516 7.625h-37.484zm21.468 70h15.266c3.145 0 5.567-.766 7.266-2.297 1.695-1.531 2.547-3.578 2.547-6.14 0-2.571-.891-4.602-2.672-6.095-1.782-1.488-4.078-2.234-6.89-2.234h-15.517zm0-35.25l13.532-.125c2.394-.164 4.316-.91 5.765-2.235 1.446-1.32 2.172-3.015 2.172-5.078 0-2.32-.851-4.207-2.547-5.656-1.687-1.445-3.98-2.172-6.875-2.172h-12.047zm0 0M2001.917 1747.968c6.207-6.875 13.695-10.313 22.469-10.313 4.132 0 7.976 1.016 11.53 3.047 3.563 2.032 6.376 4.7 8.438 8l1.25-9.797h18.235v68.25h-18.235l-1.25-9.921c-2.062 3.218-4.875 5.843-8.437 7.875-3.555 2.03-7.399 3.046-11.531 3.046-8.774 0-16.262-3.453-22.47-10.359-6.21-6.914-9.312-15.21-9.312-24.89 0-9.676 3.102-17.989 9.313-24.938zm15.515 35.86c2.895 2.98 6.493 4.468 10.797 4.468 4.301 0 7.957-1.488 10.969-4.469 3.02-2.976 4.531-6.617 4.531-10.922 0-4.3-1.511-7.96-4.531-10.984-3.012-3.02-6.668-4.531-10.969-4.531-4.304 0-7.922 1.511-10.86 4.531-2.937 3.023-4.405 6.684-4.405 10.984 0 4.305 1.488 7.946 4.468 10.922zm0 0M2084.684 1738.905l2.968-22.343h16.391v22.343h15.25v17.75h-15.25v20.22c0 8.187 3.555 12.28 10.672 12.28 1.562 0 3.086-.242 4.578-.734l4.969 17.86c-3.637 1.488-7.856 2.234-12.656 2.234-8.106 0-14.747-2.438-19.922-7.313-5.168-4.883-7.75-12.953-7.75-24.203v-20.344h-8.938v-17.75zm0 0M2141.636 1738.905l2.969-22.343h16.39v22.343h15.25v17.75h-15.25v20.22c0 8.187 3.555 12.28 10.672 12.28 1.563 0 3.086-.242 4.578-.734l4.969 17.86c-3.637 1.488-7.856 2.234-12.656 2.234-8.106 0-14.746-2.438-19.922-7.313-5.168-4.883-7.75-12.953-7.75-24.203v-20.344h-8.938v-17.75zm0 0M2200.822 1748.218c6.782-6.875 15.008-10.313 24.688-10.313 9.758 0 18.031 3.438 24.812 10.313 6.79 6.867 10.188 15.137 10.188 24.812 0 2.063-.168 4.586-.5 7.563h-47.906c1 2.73 2.843 4.945 5.53 6.64 2.688 1.7 5.892 2.547 9.61 2.547 5.957 0 10.594-1.656 13.907-4.968l16 10.187c-3.23 4.055-7.594 7.297-13.094 9.735-5.5 2.437-11.106 3.656-16.813 3.656-10.668 0-19.46-3.41-26.375-10.235-6.906-6.82-10.36-15.195-10.36-25.125 0-9.675 3.438-17.945 10.313-24.812zm11.407 16.625h27.422c-.657-2.32-2.25-4.285-4.782-5.89-2.523-1.614-5.601-2.423-9.234-2.423-3.563 0-6.524.809-8.875 2.422-2.356 1.606-3.867 3.57-4.531 5.89zm0 0M2273.278 1807.155v-68.25h18.234l1.5 9.063c3.883-6.375 10.379-9.563 19.484-9.563 2.563 0 4.79.168 6.688.5l-4.094 19.235c-.492-.082-1.152-.125-1.984-.125-13.149 0-19.719 7.281-19.719 21.844v27.296zm0 0M2330.85 1807.155v-68.25h20.11v68.25zm-1.125-84.14c0-3.063 1.094-5.707 3.282-7.938 2.195-2.226 4.828-3.343 7.89-3.343 3.063 0 5.688 1.117 7.875 3.343 2.196 2.23 3.297 4.875 3.297 7.938 0 3.062-1.074 5.672-3.219 7.828-2.242 2.23-4.89 3.344-7.953 3.344-3.062 0-5.695-1.094-7.89-3.282-2.188-2.195-3.282-4.828-3.282-7.89zm0 0M2374.036 1748.218c6.782-6.875 15.008-10.313 24.688-10.313 9.758 0 18.031 3.438 24.812 10.313 6.79 6.867 10.188 15.137 10.188 24.812 0 2.063-.168 4.586-.5 7.563h-47.906c1 2.73 2.843 4.945 5.53 6.64 2.688 1.7 5.892 2.547 9.61 2.547 5.957 0 10.594-1.656 13.907-4.968l16 10.187c-3.23 4.055-7.594 7.297-13.094 9.735-5.5 2.437-11.106 3.656-16.813 3.656-10.668 0-19.46-3.41-26.375-10.235-6.906-6.82-10.36-15.195-10.36-25.125 0-9.675 3.438-17.945 10.313-24.812zm11.407 16.625h27.422c-.657-2.32-2.25-4.285-4.782-5.89-2.523-1.614-5.601-2.423-9.234-2.423-3.563 0-6.524.809-8.875 2.422-2.356 1.606-3.867 3.57-4.531 5.89zm0 0M2457.539 1784.202c2.062 1.899 4.789 3.387 8.187 4.469 3.395 1.074 6.617 1.61 9.672 1.61 5.219 0 7.828-1.118 7.828-3.36 0-1.156-1.289-2.102-3.86-2.844-2.562-.75-5.648-1.554-9.25-2.422a79.193 79.193 0 01-10.843-3.468c-3.637-1.446-6.742-3.868-9.312-7.266-2.563-3.395-3.844-7.57-3.844-12.531 0-6.29 2.457-11.36 7.375-15.203 4.926-3.844 11.445-5.766 19.562-5.766 12.739 0 22.332 3.762 28.782 11.281l-11.907 12.047c-1.742-1.82-4.203-3.207-7.39-4.156-3.188-.957-6.188-1.438-9-1.438-4.875 0-7.313 1.079-7.313 3.235 0 .906.926 1.695 2.781 2.36 1.864.655 4.16 1.234 6.891 1.734 2.727.5 5.727 1.289 9 2.359 3.27 1.074 6.27 2.375 9 3.906 2.727 1.531 5.02 3.809 6.875 6.828 1.863 3.024 2.797 6.559 2.797 10.61 0 7.53-2.625 13.218-7.875 17.062-5.25 3.844-12.016 5.766-20.297 5.766-5.71 0-11.418-.992-17.125-2.969-5.71-1.988-10.465-4.883-14.266-8.687zm0 0"
        fill="#f6d44c" />
</svg>